<?xml version="1.0" encoding="UTF-8" standalone="no"?>
<!-- Created with Inkscape (http://www.inkscape.org/) -->

<svg
   version="1.1"
   id="svg2"
   width="682.66669"
   height="682.66669"
   viewBox="0 0 682.66669 682.66669"
   sodipodi:docname="icon-face.ai"
   xmlns:inkscape="http://www.inkscape.org/namespaces/inkscape"
   xmlns:sodipodi="http://sodipodi.sourceforge.net/DTD/sodipodi-0.dtd"
   xmlns="http://www.w3.org/2000/svg"
   xmlns:svg="http://www.w3.org/2000/svg">
  <defs
     id="defs6">
    <clipPath
       clipPathUnits="userSpaceOnUse"
       id="clipPath16">
      <path
         d="M 0,512 H 512 V 0 H 0 Z"
         id="path14" />
    </clipPath>
    <clipPath
       clipPathUnits="userSpaceOnUse"
       id="clipPath76">
      <path
         d="m 137.463,258.096 h 85.768 v -85.768 h -85.768 z"
         id="path74" />
    </clipPath>
  </defs>
  <sodipodi:namedview
     id="namedview4"
     pagecolor="#ffffff"
     bordercolor="#000000"
     borderopacity="0.25"
     inkscape:showpageshadow="2"
     inkscape:pageopacity="0.0"
     inkscape:pagecheckerboard="0"
     inkscape:deskcolor="#d1d1d1" />
  <g
     id="g8"
     inkscape:groupmode="layer"
     inkscape:label="icon-face"
     transform="matrix(1.3333333,0,0,-1.3333333,0,682.66667)">
    <g
       id="g10">
      <g
         id="g12"
         clip-path="url(#clipPath16)">
        <g
           id="g18"
           transform="translate(408.6194,406.2793)">
          <path
             d="m 0,0 c -0.501,-7.997 -2.669,-16.53 -4.517,-22.582 -12.22,9.675 -25.82,16.687 -40.887,19.129 -4.034,0.652 -8.072,0.762 -12.166,0.438 2.439,8.531 5.95,17.44 9.852,19.748 C -35.716,23.777 0.724,11.199 0,0"
             style="fill:#ff7f00;fill-opacity:1;fill-rule:nonzero;stroke:none"
             id="path20" />
        </g>
        <g
           id="g22"
           transform="translate(104.0017,406.2793)">
          <path
             d="m 0,0 c 0.501,-7.997 2.669,-16.53 4.517,-22.582 12.22,9.675 25.82,16.687 40.887,19.129 4.034,0.652 8.072,0.762 12.166,0.438 -2.439,8.531 -5.95,17.44 -9.852,19.748 C 35.716,23.777 -0.724,11.199 0,0"
             style="fill:#ff7f00;fill-opacity:1;fill-rule:nonzero;stroke:none"
             id="path24" />
        </g>
        <g
           id="g26"
           transform="translate(432.4381,375.1855)">
          <path
             d="m 0,0 c -25.806,24.584 -59.29,37.527 -93.511,38.975 v 0.054 H -94.5 c -3.378,0.121 -6.762,0.103 -10.147,0 h -143.582 c -3.385,0.103 -6.769,0.121 -10.148,0 h -0.098 V 39.024 C -293.005,37.765 -326.847,24.797 -352.876,0 c -55.865,-53.219 -113.129,-196.471 -55.701,-251.179 38.943,-37.099 120.614,-23.951 186.579,4.952 28.883,12.654 62.237,12.654 91.12,0 65.965,-28.903 147.636,-42.051 186.579,-4.952 C 113.129,-196.471 55.865,-53.219 0,0"
             style="fill:#000000;fill-opacity:1;fill-rule:nonzero;stroke:none"
             id="path28" />
        </g>
        <g
           id="g30"
           transform="translate(482.2797,153.328)">
          <path
             d="m 0,0 c -2.586,-5.534 -5.959,-10.283 -10.045,-14.175 -11.469,-10.926 -29.647,-16.46 -54.122,-16.46 -30.808,0 -69.863,9.39 -107.156,25.743 -17.354,7.57 -35.831,11.426 -54.946,11.426 -19.153,0 -37.631,-3.856 -54.984,-11.426 -37.293,-16.353 -76.348,-25.743 -107.156,-25.743 -24.438,0 -42.653,5.534 -54.122,16.46 -19.453,18.567 -22.676,56.95 -8.846,105.367 12.744,44.453 38.68,90.871 64.579,115.507 4.235,4.035 8.77,7.748 13.568,11.069 18.928,13.247 41.716,20.816 65.778,21.709 h 0.487 c 1.2,0.036 2.399,0.071 3.636,0.071 1.499,0 3.036,-0.035 4.535,-0.071 h 145.012 c 1.536,0.036 3.036,0.071 4.572,0.071 1.05,0 2.099,0 3.111,-0.035 l 1.762,-0.072 c 29.872,-1.285 57.757,-12.889 78.596,-32.742 C -39.879,182.063 -13.943,135.645 -1.199,91.192 9.783,52.916 10.045,20.888 0,0"
             style="fill:#4caa15;fill-opacity:1;fill-rule:nonzero;stroke:none"
             id="path32" />
        </g>
        <g
           id="g34"
           transform="translate(482.2797,153.328)">
          <path
             d="m 0,0 c -2.586,-5.534 -5.959,-10.283 -10.045,-14.175 -11.469,-10.926 -29.647,-16.46 -54.122,-16.46 -30.808,0 -69.863,9.39 -107.156,25.743 -17.354,7.57 -35.831,11.426 -54.946,11.426 -19.153,0 -37.631,-3.856 -54.984,-11.426 -37.293,-16.353 -76.348,-25.743 -107.156,-25.743 -24.438,0 -42.653,5.534 -54.122,16.46 -19.453,18.567 -22.676,56.95 -8.846,105.367 12.744,44.453 38.68,90.871 64.579,115.507 4.235,4.035 8.769,7.748 13.567,11.068 5.218,3.612 29.321,0.256 36.743,0.386 13.845,0.242 27.687,0.562 41.532,0.774 28.116,0.429 56.487,0.885 84.542,-1.282 45.318,-3.501 84.82,-12.376 118.437,-44.402 C -56.82,139.751 -21.551,76.624 -4.235,16.211 -2.661,10.712 -1.237,5.284 0,0"
             style="fill:#3a930a;fill-opacity:1;fill-rule:nonzero;stroke:none"
             id="path36" />
        </g>
        <g
           id="g38"
           transform="translate(395.3838,331.0637)">
          <path
             d="m 0,0 c 0,-7.931 -6.749,-14.36 -15.074,-14.36 -8.324,0 -15.073,6.429 -15.073,14.36 0,7.931 6.749,14.36 15.073,14.36 C -6.749,14.36 0,7.931 0,0"
             style="fill:#e2850a;fill-opacity:1;fill-rule:nonzero;stroke:none"
             id="path40" />
        </g>
        <g
           id="g42"
           transform="translate(395.3838,273.6243)">
          <path
             d="m 0,0 c 0,-7.931 -6.749,-14.36 -15.074,-14.36 -8.324,0 -15.073,6.429 -15.073,14.36 0,7.931 6.749,14.36 15.073,14.36 C -6.749,14.36 0,7.931 0,0"
             style="fill:#e2850a;fill-opacity:1;fill-rule:nonzero;stroke:none"
             id="path44" />
        </g>
        <g
           id="g46"
           transform="translate(410.4574,287.9841)">
          <path
             d="m 0,0 c -8.325,0 -15.074,6.429 -15.074,14.36 0,7.931 6.749,14.36 15.074,14.36 8.325,0 15.074,-6.429 15.074,-14.36 C 15.074,6.429 8.325,0 0,0"
             style="fill:#e2850a;fill-opacity:1;fill-rule:nonzero;stroke:none"
             id="path48" />
        </g>
        <g
           id="g50"
           transform="translate(350.1628,287.9841)">
          <path
             d="m 0,0 c -8.325,0 -15.074,6.429 -15.074,14.36 0,7.931 6.749,14.36 15.074,14.36 8.325,0 15.074,-6.429 15.074,-14.36 C 15.074,6.429 8.325,0 0,0"
             style="fill:#e2850a;fill-opacity:1;fill-rule:nonzero;stroke:none"
             id="path52" />
        </g>
        <g
           id="g54"
           transform="translate(398.703,329.9543)">
          <path
             d="m 0,0 c 0,-7.931 -6.749,-14.36 -15.074,-14.36 -8.324,0 -15.073,6.429 -15.073,14.36 0,7.931 6.749,14.36 15.073,14.36 C -6.749,14.36 0,7.931 0,0"
             style="fill:#ff9700;fill-opacity:1;fill-rule:nonzero;stroke:none"
             id="path56" />
        </g>
        <g
           id="g58"
           transform="translate(398.703,272.5149)">
          <path
             d="m 0,0 c 0,-7.931 -6.749,-14.36 -15.074,-14.36 -8.324,0 -15.073,6.429 -15.073,14.36 0,7.931 6.749,14.36 15.073,14.36 C -6.749,14.36 0,7.931 0,0"
             style="fill:#ff9700;fill-opacity:1;fill-rule:nonzero;stroke:none"
             id="path60" />
        </g>
        <g
           id="g62"
           transform="translate(413.7767,286.8747)">
          <path
             d="m 0,0 c -8.325,0 -15.074,6.429 -15.074,14.36 0,7.931 6.749,14.36 15.074,14.36 8.325,0 15.074,-6.429 15.074,-14.36 C 15.074,6.429 8.325,0 0,0"
             style="fill:#ff9700;fill-opacity:1;fill-rule:nonzero;stroke:none"
             id="path64" />
        </g>
        <g
           id="g66"
           transform="translate(353.482,286.8747)">
          <path
             d="m 0,0 c -8.325,0 -15.074,6.429 -15.074,14.36 0,7.931 6.749,14.36 15.074,14.36 8.325,0 15.074,-6.429 15.074,-14.36 C 15.074,6.429 8.325,0 0,0"
             style="fill:#ff9700;fill-opacity:1;fill-rule:nonzero;stroke:none"
             id="path68" />
        </g>
        <g
           id="g70">
          <g
             id="g72" />
          <g
             id="g84">
            <g
               clip-path="url(#clipPath76)"
               opacity="0.610001"
               id="g82">
              <g
                 transform="translate(223.2309,215.2119)"
                 id="g80">
                <path
                   d="m 0,0 c 0,-23.684 -19.2,-42.884 -42.884,-42.884 -23.684,0 -42.884,19.2 -42.884,42.884 0,23.684 19.2,42.884 42.884,42.884 C -19.2,42.884 0,23.684 0,0"
                   style="fill:#8e5b19;fill-opacity:1;fill-rule:nonzero;stroke:none"
                   id="path78" />
              </g>
            </g>
          </g>
        </g>
        <g
           id="g86"
           transform="translate(220.6937,215.5476)">
          <path
             d="m 0,0 c 0,-22.097 -17.913,-40.011 -40.011,-40.011 -22.097,0 -40.011,17.914 -40.011,40.011 0,22.097 17.914,40.011 40.011,40.011 C -17.913,40.011 0,22.097 0,0"
             style="fill:#ff9700;fill-opacity:1;fill-rule:nonzero;stroke:none"
             id="path88" />
        </g>
        <g
           id="g90"
           transform="translate(359.4267,217.5093)">
          <path
             d="m 0,0 c 0,-17.893 -14.505,-32.398 -32.398,-32.398 -17.892,0 -32.397,14.505 -32.397,32.398 0,17.893 14.505,32.398 32.397,32.398 C -14.505,32.398 0,17.893 0,0"
             style="fill:#c98f00;fill-opacity:1;fill-rule:nonzero;stroke:none"
             id="path92" />
        </g>
        <g
           id="g94"
           transform="translate(356.4814,217.5093)">
          <path
             d="m 0,0 c 0,-16.266 -13.186,-29.452 -29.452,-29.452 -16.266,0 -29.453,13.186 -29.453,29.452 0,16.266 13.187,29.452 29.453,29.452 C -13.186,29.452 0,16.266 0,0"
             style="fill:#000000;fill-opacity:1;fill-rule:nonzero;stroke:none"
             id="path96" />
        </g>
        <g
           id="g98"
           transform="translate(271.359,368.0494)">
          <path
             d="m 0,0 c 0,-10.632 -8.619,-19.251 -19.251,-19.251 -10.632,0 -19.252,8.619 -19.252,19.251 0,10.632 8.62,19.251 19.252,19.251 C -8.619,19.251 0,10.632 0,0"
             style="fill:#ceccc8;fill-opacity:1;fill-rule:nonzero;stroke:none"
             id="path100" />
        </g>
        <g
           id="g102"
           transform="translate(213.6052,331.1511)">
          <path
             d="m 0,0 c 0,-6.202 -5.028,-11.23 -11.23,-11.23 -6.202,0 -11.23,5.028 -11.23,11.23 0,6.202 5.028,11.23 11.23,11.23 C -5.028,11.23 0,6.202 0,0"
             style="fill:#000000;fill-opacity:1;fill-rule:nonzero;stroke:none"
             id="path104" />
        </g>
        <g
           id="g106"
           transform="translate(306.653,331.1511)">
          <path
             d="m 0,0 c 0,-6.202 -5.028,-11.23 -11.23,-11.23 -6.202,0 -11.23,5.028 -11.23,11.23 0,6.202 5.028,11.23 11.23,11.23 C -5.028,11.23 0,6.202 0,0"
             style="fill:#000000;fill-opacity:1;fill-rule:nonzero;stroke:none"
             id="path108" />
        </g>
        <g
           id="g110"
           transform="translate(248.7852,310.2956)">
          <path
             d="M 0,0 C -17.264,0 -17.264,9.626 0,9.626 17.264,9.626 17.264,0 0,0"
             style="fill:#0f0f0f;fill-opacity:1;fill-rule:nonzero;stroke:none"
             id="path112" />
        </g>
        <g
           id="g114"
           transform="translate(162.0575,303.2159)">
          <path
             d="m 0,0 c 0,-17.893 -14.505,-32.398 -32.398,-32.398 -17.892,0 -32.397,14.505 -32.397,32.398 0,17.893 14.505,32.398 32.397,32.398 C -14.505,32.398 0,17.893 0,0"
             style="fill:#c98f00;fill-opacity:1;fill-rule:nonzero;stroke:none"
             id="path116" />
        </g>
        <g
           id="g118"
           transform="translate(159.1122,303.2159)">
          <path
             d="m 0,0 c 0,-16.266 -13.186,-29.452 -29.452,-29.452 -16.266,0 -29.453,13.186 -29.453,29.452 0,16.266 13.187,29.452 29.453,29.452 C -13.186,29.452 0,16.266 0,0"
             style="fill:#000000;fill-opacity:1;fill-rule:nonzero;stroke:none"
             id="path120" />
        </g>
      </g>
    </g>
  </g>
</svg>
